<?xml version="1.0" standalone="no"?>
<!DOCTYPE svg PUBLIC "-//W3C//DTD SVG 20010904//EN"
 "http://www.w3.org/TR/2001/REC-SVG-20010904/DTD/svg10.dtd">
<svg version="1.0" xmlns="http://www.w3.org/2000/svg"
 width="768.000000pt" height="768.000000pt" viewBox="0 0 768.000000 768.000000"
 preserveAspectRatio="xMidYMid meet">
<metadata>
Created by potrace 1.11, written by Peter Selinger 2001-2013
</metadata>
<g transform="translate(0.000000,768.000000) scale(0.100000,-0.100000)"
fill="#000000" stroke="none">
<path d="M5495 7369 l-80 -28 -20 -88 c-11 -49 -24 -94 -28 -101 -5 -7 -30
-12 -61 -12 -57 0 -70 -8 -81 -51 -6 -25 -4 -27 45 -40 28 -7 55 -18 59 -24 5
-5 -14 -124 -45 -275 -29 -146 -54 -276 -54 -290 0 -120 116 -221 254 -220 68
1 138 30 163 69 34 51 31 65 -14 58 -61 -10 -153 16 -185 52 -41 45 -37 106
19 354 38 169 50 207 63 207 10 0 68 -11 130 -25 62 -14 114 -25 115 -23 4 4
55 120 55 124 0 2 -11 4 -24 4 -35 0 -240 40 -248 49 -4 3 8 66 27 139 19 72
35 136 35 142 0 16 -40 10 -125 -21z"/>
<path d="M4575 7220 c-33 -11 -89 -34 -124 -52 -54 -28 -69 -41 -88 -80 -13
-25 -26 -60 -29 -77 -6 -26 -2 -32 27 -50 19 -12 36 -21 39 -21 3 0 21 30 40
66 46 86 59 97 129 102 74 5 141 -22 171 -70 17 -27 20 -46 18 -101 -3 -46 -9
-71 -18 -78 -8 -5 -53 -21 -100 -35 -47 -14 -135 -41 -196 -60 l-111 -34 -22
-49 c-41 -96 -23 -199 49 -272 80 -83 148 -84 304 -4 l85 43 15 -39 c9 -23 27
-44 45 -54 42 -21 127 -19 181 6 64 29 80 46 80 88 l0 36 -54 -3 c-45 -3 -58
0 -76 18 -22 22 -22 25 -13 193 16 325 5 386 -81 472 -76 76 -155 92 -271 55z
m184 -542 c-2 -120 -8 -146 -42 -172 -41 -30 -140 -30 -184 2 -63 45 -69 148
-10 179 27 14 205 77 230 82 4 0 6 -41 6 -91z"/>
<path d="M3673 7125 c-101 -31 -204 -122 -249 -218 -123 -270 45 -630 309
-662 141 -18 337 72 416 191 28 43 42 110 26 126 -3 3 -23 -12 -45 -33 -170
-162 -412 -153 -521 19 -47 74 -42 86 44 112 128 38 373 119 421 139 42 19 46
23 46 56 0 24 -5 35 -14 35 -8 0 -29 28 -47 61 -41 76 -106 144 -162 169 -50
23 -160 26 -224 5z m123 -121 c46 -26 106 -108 102 -138 -3 -21 -13 -24 -217
-81 -68 -19 -128 -32 -133 -29 -18 11 -3 145 20 190 25 48 40 62 89 80 46 16
84 10 139 -22z"/>
<path d="M2125 7029 c-28 -28 -89 -80 -137 -116 -89 -65 -103 -88 -73 -113 13
-11 26 -10 74 5 31 9 66 16 77 14 10 -2 40 -35 65 -74 88 -132 392 -670 498
-882 43 -86 54 -94 94 -69 12 8 63 29 112 46 116 41 158 66 222 131 68 71 87
96 119 159 75 149 71 286 -11 451 -44 87 -108 152 -183 187 -49 23 -70 27
-152 27 -78 0 -102 -4 -136 -22 -46 -25 -137 -118 -180 -187 -16 -25 -34 -46
-41 -46 -23 0 -263 451 -263 495 0 20 -17 45 -30 45 -3 0 -28 -23 -55 -51z
m746 -424 c54 -28 141 -124 177 -195 63 -125 65 -239 5 -318 -54 -72 -193
-113 -262 -77 -38 19 -147 188 -235 363 -31 61 -33 70 -21 97 16 40 114 128
156 143 46 15 138 8 180 -13z"/>
<path d="M6072 6865 c-117 -60 -164 -192 -108 -311 13 -27 53 -86 88 -131 97
-119 118 -154 118 -191 0 -94 -80 -137 -175 -93 -98 44 -135 110 -135 238 l0
63 -39 0 c-38 0 -40 -2 -55 -47 -34 -104 -48 -184 -34 -200 25 -30 135 -102
198 -129 86 -36 209 -45 276 -19 98 37 153 115 154 216 0 73 -30 132 -116 229
-90 101 -124 156 -124 199 0 55 31 98 80 111 36 10 47 8 95 -14 79 -36 98 -70
91 -164 -4 -63 -2 -73 14 -82 34 -18 49 -10 74 38 13 26 40 71 60 101 l37 54
-28 23 c-15 13 -74 46 -130 75 -99 51 -106 53 -195 57 -85 3 -98 1 -146 -23z"/>
<path d="M1606 6311 c-9 -10 -16 -25 -16 -33 0 -9 -9 -45 -20 -79 l-19 -63 69
-72 c39 -40 70 -76 70 -81 0 -5 -14 -30 -30 -57 -30 -46 -30 -48 -14 -82 9
-19 19 -34 22 -34 3 0 27 18 54 41 31 26 52 37 61 32 7 -4 81 -82 165 -173
213 -233 262 -270 354 -270 153 1 307 222 226 325 l-21 27 -19 -36 c-44 -86
-135 -139 -201 -117 -19 7 -67 46 -113 94 -139 143 -267 288 -260 295 3 4 43
44 89 89 72 72 80 85 70 100 -7 10 -22 35 -33 56 l-21 38 -98 -103 -99 -103
-27 25 c-15 14 -60 64 -100 112 -69 81 -74 85 -89 69z"/>
<path d="M4490 6099 c-608 -49 -1189 -278 -1672 -660 -153 -122 -301 -274
-316 -325 -49 -171 62 -327 233 -326 83 0 120 18 216 107 431 399 923 628
1494 696 128 15 430 15 565 0 553 -63 1065 -297 1465 -671 55 -51 120 -102
144 -113 56 -24 151 -26 206 -3 131 55 188 219 120 345 -43 78 -259 269 -465
412 -582 403 -1288 594 -1990 538z"/>
<path d="M6547 6033 c-4 -3 -2 -14 3 -23 7 -13 2 -54 -16 -135 -20 -88 -24
-119 -15 -128 9 -9 16 -9 29 0 9 7 55 35 102 63 66 39 91 49 113 44 15 -3 27
-1 27 4 0 15 -98 73 -105 62 -3 -5 -1 -11 5 -15 5 -3 10 -10 10 -15 0 -13
-109 -85 -116 -78 -3 4 3 35 13 69 15 51 23 65 41 67 12 2 22 6 22 10 -1 11
-107 82 -113 75z"/>
<path d="M6775 5820 c-23 -24 -25 -30 -12 -35 8 -4 24 -2 36 4 22 12 59 2 79
-22 16 -19 16 -20 -108 -56 -57 -17 -106 -34 -109 -37 -8 -8 119 -124 136
-124 18 0 63 30 63 42 0 6 -7 7 -16 4 -47 -18 -62 -17 -92 9 -18 15 -32 30
-32 35 0 4 39 20 88 34 108 33 142 46 142 55 0 4 -26 29 -57 56 -32 28 -59 53
-61 57 -7 16 -29 7 -57 -22z"/>
<path d="M1426 5729 c-60 -47 -81 -156 -55 -279 6 -27 9 -55 7 -60 -2 -6 -30
9 -63 34 -33 25 -65 46 -70 46 -6 0 -17 -21 -23 -47 -7 -27 -29 -88 -49 -137
-34 -86 -35 -89 -16 -107 18 -18 19 -18 63 3 77 39 88 35 279 -101 222 -158
251 -184 251 -225 0 -17 -7 -44 -15 -60 -17 -33 -14 -41 25 -61 l29 -15 82
122 c45 68 109 160 142 206 l59 83 -23 25 c-12 13 -27 24 -34 24 -6 0 -35 -25
-65 -55 -40 -41 -62 -55 -82 -55 -19 0 -79 34 -186 107 -225 152 -220 148
-238 208 -13 46 -13 58 -1 87 17 41 33 55 94 78 44 17 48 21 46 51 -1 19 -17
55 -40 88 -44 65 -73 75 -117 40z"/>
<path d="M6965 5710 c-4 -6 -1 -17 5 -25 15 -18 5 -47 -53 -148 -56 -100 -43
-117 59 -72 32 14 59 23 62 21 2 -3 -11 -37 -29 -76 -43 -94 -33 -100 80 -47
47 22 104 41 126 43 22 2 42 3 45 4 9 1 -80 80 -90 80 -13 0 -13 -17 0 -25 6
-4 8 -11 4 -16 -9 -16 -124 -70 -124 -59 0 6 16 41 35 79 46 91 35 100 -65 56
-41 -19 -76 -32 -78 -31 -1 2 13 30 31 62 29 51 37 59 60 57 15 -1 27 1 27 5
-1 4 -20 29 -44 55 -28 31 -46 45 -51 37z"/>
<path d="M3488 4930 c-385 -61 -622 -298 -698 -700 -79 -414 18 -885 268
-1308 298 -504 831 -984 1505 -1358 84 -46 161 -84 171 -84 36 0 334 169 536
303 253 170 467 344 670 547 394 393 629 800 721 1246 26 127 37 438 20 569
-27 202 -99 388 -198 510 -98 120 -244 212 -408 257 -109 29 -358 32 -485 5
-227 -49 -460 -161 -609 -294 l-44 -39 134 -38 c312 -89 429 -146 554 -271 63
-62 91 -100 127 -170 37 -72 89 -216 88 -245 0 -3 -14 20 -31 50 -85 155 -207
212 -543 250 -203 24 -308 43 -378 70 -41 15 -48 16 -48 3 0 -8 59 -346 131
-751 107 -601 130 -749 126 -803 -14 -209 -216 -385 -483 -420 -224 -29 -449
73 -531 240 -24 49 -28 68 -28 146 0 82 3 97 33 157 87 178 290 293 517 293
55 0 113 -4 128 -8 25 -7 28 -5 24 10 -3 10 -65 355 -138 766 l-133 749 -84
62 c-149 113 -333 195 -527 237 -104 22 -305 32 -387 19z"/>
<path d="M924 4831 c-46 -21 -106 -77 -128 -119 -21 -41 -29 -131 -21 -239 l7
-96 56 -54 c31 -29 60 -53 64 -53 4 0 21 12 38 28 l30 27 -50 60 c-59 70 -65
88 -51 141 15 55 46 101 83 125 28 17 46 20 120 17 52 -3 93 -9 102 -17 20
-17 21 -87 1 -246 -21 -169 -20 -198 10 -233 60 -71 187 -102 273 -66 111 46
141 144 106 342 -6 32 -6 32 34 32 75 0 125 64 126 165 1 80 -8 107 -43 128
-39 23 -39 22 -47 -18 -10 -53 -39 -85 -78 -85 -19 0 -108 33 -214 80 -99 44
-200 84 -224 90 -68 15 -149 12 -194 -9z m453 -282 c112 -50 128 -68 120 -140
-11 -91 -72 -145 -154 -136 -27 3 -54 14 -69 28 -23 21 -24 29 -24 133 0 117
6 156 22 156 6 0 53 -19 105 -41z"/>
<path d="M2323 4740 c-296 -420 -476 -911 -523 -1429 -17 -183 -8 -515 19
-691 89 -585 334 -1102 731 -1548 l92 -104 45 44 c39 38 46 41 56 26 7 -9 41
-58 77 -110 157 -225 417 -434 679 -544 90 -37 299 -99 307 -91 5 4 -1091
1915 -1174 2047 l-15 24 -19 -54 c-10 -30 -28 -104 -40 -165 -31 -153 -31
-451 -1 -600 12 -55 20 -101 18 -103 -5 -5 -108 146 -163 239 -136 227 -264
555 -316 809 -122 597 -47 1198 218 1735 72 146 248 433 277 450 5 4 -19 25
-53 48 -35 23 -76 61 -93 84 -16 23 -33 42 -37 42 -4 1 -43 -48 -85 -109z"/>
<path d="M7006 4794 c-26 -30 -68 -66 -92 -80 -24 -14 -44 -28 -44 -30 0 -2
22 -34 49 -71 251 -345 415 -756 483 -1208 20 -139 18 -600 -5 -739 -67 -418
-207 -782 -430 -1118 -39 -59 -73 -106 -75 -104 -2 2 6 53 18 112 43 219 37
446 -16 664 -45 183 2 239 -437 -523 -213 -369 -481 -834 -596 -1032 -114
-198 -205 -361 -200 -363 15 -6 199 47 286 83 115 48 263 131 354 201 142 108
312 291 394 424 15 25 29 47 32 49 2 3 23 -14 46 -37 l43 -42 76 78 c108 110
208 236 310 392 642 975 635 2241 -18 3225 -40 61 -86 124 -101 142 l-28 32
-49 -55z"/>
<path d="M906 4035 c-2 -7 -38 -17 -82 -24 -183 -27 -277 -120 -291 -289 -14
-174 71 -333 219 -408 117 -59 311 -70 430 -25 149 57 251 230 233 393 -15
127 -73 260 -121 279 -51 19 -54 13 -28 -58 78 -223 -45 -446 -255 -461 -32
-2 -61 0 -63 4 -3 5 -1 47 3 94 4 47 13 169 20 273 11 173 10 189 -5 206 -22
24 -53 33 -60 16z m-43 -224 c5 -20 3 -51 -14 -216 -13 -122 -19 -136 -57
-126 -146 42 -213 158 -154 268 36 67 211 125 225 74z"/>
<path d="M1198 3205 c-3 -3 -3 -39 0 -80 6 -94 -7 -128 -57 -148 -87 -35 -850
-187 -938 -187 -53 0 -72 17 -104 94 -23 57 -24 58 -57 52 -19 -3 -36 -7 -38
-9 -3 -2 7 -51 20 -108 26 -111 70 -333 81 -412 l6 -48 37 3 37 3 5 82 c4 59
10 87 22 99 16 16 416 109 426 99 6 -5 101 -445 124 -573 16 -83 15 -84 -6
-93 -23 -9 -250 -54 -333 -65 -82 -10 -96 -3 -137 76 -37 71 -43 75 -83 64
-29 -8 -29 -11 7 -163 16 -69 38 -182 50 -251 28 -167 25 -160 66 -160 65 0
74 12 74 95 0 89 4 102 41 121 26 13 270 66 709 154 80 16 175 30 212 30 77 0
90 -10 129 -106 22 -53 24 -55 59 -52 45 4 45 -8 -15 293 -70 350 -58 317
-108 313 l-42 -3 -3 -96 c-2 -80 -6 -99 -22 -114 -21 -19 -425 -103 -437 -91
-11 11 -142 661 -135 668 9 8 317 67 393 75 69 7 87 -7 119 -96 20 -54 26 -61
49 -61 50 0 51 7 20 140 -24 104 -58 277 -84 428 -5 29 -9 32 -44 32 -21 0
-40 -2 -43 -5z"/>
<path d="M3045 2693 c-104 -11 -227 -68 -304 -138 l-54 -51 138 -239 c76 -132
296 -514 490 -850 194 -335 419 -727 500 -870 82 -143 150 -262 152 -264 6 -8
118 31 175 61 64 34 175 138 184 172 9 37 -138 406 -282 706 -225 466 -521
935 -835 1320 -121 148 -130 157 -164 153z"/>
<path d="M6292 2576 c-375 -458 -690 -963 -932 -1496 -52 -115 -171 -409 -205
-507 l-19 -52 29 -41 c33 -48 111 -112 175 -145 46 -23 159 -60 164 -53 2 1
68 116 146 253 79 138 299 520 490 850 612 1059 642 1113 633 1129 -12 20 -89
83 -137 111 -49 28 -146 61 -202 68 l-42 5 -100 -122z"/>
</g>
</svg>
